<svg width="124" height="32" viewBox="0 0 124 32" fill="none" xmlns="http://www.w3.org/2000/svg">
<path d="M27.7671 0.419655H24.1062V31.6327H27.7671V0.419655Z" fill="#161616"/>
<path d="M0 21.176H4.07861L10.3542 7.93447L16.6298 21.176H20.7084L10.3542 0.0525102L0 21.176Z" fill="#161616"/>
<path d="M90.3623 0.419655H86.597V23.1191H90.3623V0.419655Z" fill="#161616"/>
<path d="M72.9472 21.1235H69.1297V32H89.6815L91.1454 28.6383H72.9472V21.1235Z" fill="#161616"/>
<path d="M37.1273 4.04592H45.7043V0.736637H33.3097V21.071H45.5477L47.0116 17.6547H37.1273V4.04592Z" fill="#161616"/>
<path d="M119.593 0.419655V9.30052H116.455V0.524573H112.848V31.5278H116.455V12.8218H119.593V32H123.2V0.419655H119.593Z" fill="#161616"/>
<path d="M109.396 3.99346L110.808 0.736637H96.0093V3.99346H101.028V8.19674L95.0674 21.071H98.7806L102.911 12.1902L107.042 21.071H110.808L104.845 8.19674V3.99346H109.396Z" fill="#161616"/>
<path d="M56.3718 9.30052H53.2329V0.524573H49.6263V31.5278H53.2329V12.8218H56.3718V32H59.9784V0.419655H56.3718V9.30052Z" fill="#161616"/>
<path d="M68.1377 8.88087C68.1377 5.41202 69.5495 3.31147 72.845 3.31147C75.8773 3.31147 77.7089 5.25683 77.7089 8.88087C77.7089 12.5049 75.9317 14.4503 72.845 14.4503C69.7583 14.4503 68.1377 12.4524 68.1377 8.88087ZM81.5243 8.88087C81.4198 3.20655 77.6545 0 72.8428 0C67.6657 0 64.2136 3.67869 64.2136 8.88087C64.2136 14.765 68.3966 17.7617 72.8428 17.7617C77.6023 17.7617 81.5243 14.3978 81.5243 8.88087Z" fill="#161616"/>
</svg>
